<?xml version="1.0" encoding="utf-8"?>
<!-- Generator: Adobe Illustrator 25.0.1, SVG Export Plug-In . SVG Version: 6.00 Build 0)  -->
<svg version="1.1" id="Layer_1" xmlns="http://www.w3.org/2000/svg" xmlns:xlink="http://www.w3.org/1999/xlink" x="0px" y="0px"
	 viewBox="0 0 708.66 283.46" style="enable-background:new 0 0 708.66 283.46;" xml:space="preserve">
<style type="text/css">
	.st0{fill:#4057A6;}
	.st1{fill:#293070;}
	.st2{fill:#4157A6;}
	.st3{font-family:'OpenSans-Regular';}
	.st4{font-size:55.2108px;}
	.st5{fill:#28316F;}
</style>
<g>
	<g>
		<path class="st0" d="M290.33,96.27c0,0-0.46-0.79-1.35-2.17c-5.44,3.75-12.29,5.83-19.38,5.83c-17.05,0-30.92-11.77-30.92-26.24
			c0-7.99,4.19-15.35,11.47-20.34c-2.49-1.77-5.04-3.51-7.76-5.15c-0.64-0.4-1.29-0.76-1.91-1.13
			C215.7,32.34,185.55,23.71,153,23.71C68.5,23.71,0,81.86,0,153.58c0,71.74,68.5,129.88,153,129.88
			c84.52,0,153.02-58.15,153.02-129.88C306.03,133.02,300.36,113.56,290.33,96.27z M153.01,76.86c16.09,0,29.13,11.07,29.13,24.73
			s-13.04,24.73-29.13,24.73s-29.13-11.07-29.13-24.73S136.92,76.86,153.01,76.86z M229.45,172.06l-1.27,1.35l-36.37,39.28
			l-12.25,13.22c-13.51,14.58-39.54,14.6-53.07,0.02l-12.3-13.25l-36.4-39.28l-1.24-1.35c-7.23-8.32-8.73-20.53,0.59-32.33
			c0.96-1.22,2.2-2.29,3.63-3.12c16.77-9.81,34.44-6.03,43.88,3.67l0.91,0.98l10.73,11.55c8.54,9.18,24.95,9.17,33.47-0.02
			l10.68-11.53l0.88-0.98c9.23-9.45,26.13-13.28,42.74-4.41c2.04,1.09,3.8,2.56,5.11,4.28C238.15,151.82,236.6,163.84,229.45,172.06
			z"/>
		<g>
			<path class="st1" d="M296.3,73.69c0,6.9-3.64,13.08-9.39,17.22c-4.63,3.37-10.66,5.39-17.24,5.39
				c-14.71,0-26.63-10.12-26.63-22.6c0-7.33,4.12-13.85,10.48-17.96c4.46-2.91,10.08-4.64,16.15-4.64
				C284.38,51.08,296.3,61.2,296.3,73.69z"/>
			<ellipse class="st1" cx="257.3" cy="23.71" rx="18.43" ry="15.64"/>
			<ellipse class="st1" cx="318.32" cy="40.72" rx="12.22" ry="10.37"/>
			<ellipse class="st1" cx="296.3" cy="19.15" rx="9.12" ry="7.74"/>
			<ellipse class="st1" cx="330.54" cy="5" rx="5.89" ry="5"/>
		</g>
	</g>
</g>
<text transform="matrix(1.3691 0 0 1.23 337.0771 147.5684)" class="st2 st3 st4">Educational</text>
<g>
	<path class="st5" d="M376.3,213.6h-9.7c-2.29,0-4.02-0.53-5.19-1.59c-1.17-1.06-1.85-2.96-2.03-5.68l-1.44,1.02
		c-3.85-0.1-6.46-0.24-7.83-0.4s-2.66-0.43-3.87-0.79c-1.21-0.36-1.85-0.72-1.89-1.08c-0.05-0.36-0.07-0.66-0.07-0.88
		c0-2.39,0.82-4.32,2.47-5.77c1.65-1.46,5.56-2.99,11.75-4.6c-0.16-2.08-0.61-3.83-1.33-5.23l6.03-7.09
		c0.3,2.25,0.68,6.37,1.14,12.35s0.68,9.68,0.68,11.09c0,1.14,0.54,1.7,1.61,1.7h9.67V213.6z M371.57,173.99l-5.43,4.86l-4.94-4.21
		l-5.36,4.58l-5.4-4.77l5.46-4.83l4.87,4.37l5.4-4.77L371.57,173.99z M359.79,203.13l-0.32-4.27c-5.75,1.42-8.62,2.65-8.62,3.68
		c0,0.19,0.05,0.33,0.14,0.42c0.09,0.09,0.78,0.22,2.07,0.39c1.28,0.17,2.91,0.26,4.87,0.28
		C358.64,203.5,359.26,203.34,359.79,203.13z"/>
	<path class="st5" d="M419.35,213.6h-2.84c-4.34,0-7.33-0.4-8.97-1.19c-1.63-0.79-3.11-2.37-4.41-4.72
		c-2.62,3.94-5.22,5.91-7.81,5.91H376.3v-6.97h18.64c2.8,0,4.2-1.07,4.2-3.22c0-2.02-0.77-4.65-2.31-7.9l5.36-8.33
		c1.96,5.47,3.16,10.14,3.61,14c0.14,1.28,0.36,2.18,0.67,2.71c0.3,0.53,0.72,0.98,1.26,1.35c0.54,0.37,1.18,0.67,1.93,0.9
		c0.75,0.23,1.41,0.37,1.98,0.42c0.57,0.05,3.15,0.08,7.72,0.08V213.6z M414.48,227.1l-5.43,4.86l-4.94-4.21l-5.36,4.58l-5.39-4.77
		l5.47-4.83l4.87,4.37l5.39-4.77L414.48,227.1z"/>
	<path class="st5" d="M462.41,206.63v6.97c-4.23,0-7.1-2.05-8.62-6.16c-0.72,1.36-1.88,2.75-3.47,4.15c-1.59,1.4-3.05,2.2-4.38,2.38
		c-2.03-1.96-4.12-3.45-6.27-4.46c-2.34,1.73-4.24,2.84-5.73,3.33c-1.48,0.49-3.15,0.73-4.99,0.73l-9.6,0.03v-6.97
		c5.33,0,8.62-0.03,9.9-0.09c1.27-0.06,2.54-0.16,3.8-0.31c1.26-0.14,2.28-0.34,3.05-0.57c0.77-0.24,1.25-0.53,1.44-0.88
		c0.19-0.35,0.49-1.08,0.91-2.2c1.94-5.14,3.59-8.44,4.94-9.89c1.35-1.46,2.79-2.18,4.31-2.18c1.63,0,3.01,0.43,4.13,1.28
		c1.12,0.86,1.98,2.03,2.57,3.53c0.6,1.5,0.91,2.97,0.95,4.41c0.03,1.45,0.16,2.6,0.37,3.47c0.21,0.87,0.87,1.66,1.98,2.37
		C458.8,206.27,460.38,206.63,462.41,206.63z M443.42,203.94c2.12,0.83,3.75,1.91,4.87,3.25c1.12-1.05,1.68-2.55,1.68-4.49
		c0-1.07-0.24-2.18-0.74-3.33c-0.49-1.15-1.12-1.72-1.89-1.72c-0.42-0.02-1.05,0.67-1.89,2.06
		C444.61,201.1,443.93,202.51,443.42,203.94z"/>
	<path class="st5" d="M505.46,213.6h-2.84c-4.34,0-7.33-0.4-8.97-1.19c-1.64-0.79-3.11-2.37-4.41-4.72
		c-2.62,3.94-5.22,5.91-7.81,5.91h-19.02v-6.97h18.64c2.8,0,4.2-1.07,4.2-3.22c0-2.02-0.77-4.65-2.31-7.9l5.36-8.33
		c1.96,5.47,3.16,10.14,3.61,14c0.14,1.28,0.36,2.18,0.67,2.71c0.3,0.53,0.72,0.98,1.26,1.35c0.54,0.37,1.18,0.67,1.93,0.9
		c0.75,0.23,1.41,0.37,1.98,0.42c0.57,0.05,3.15,0.08,7.72,0.08V213.6z M500.59,227.1l-5.43,4.86l-4.94-4.21l-5.36,4.58l-5.4-4.77
		l5.46-4.83l4.87,4.37l5.39-4.77L500.59,227.1z"/>
	<path class="st5" d="M548.52,213.6h-3.96c-3.43,0-6.06-0.5-7.86-1.5c-1.81-1-3.22-2.59-4.22-4.75c-0.82,1.94-2.08,3.47-3.78,4.58
		c-1.7,1.11-3.62,1.67-5.75,1.67h-17.48v-6.97h17.59c1.07,0,1.95-0.23,2.63-0.68c0.68-0.45,1.16-1.12,1.45-2
		c0.29-0.88,0.44-2.53,0.44-4.97c0-10.38-0.86-16.68-2.59-18.89c1-1.32,2.87-3.53,5.61-6.63c2.15,3.01,3.22,7.04,3.22,12.08
		c0,0.74-0.02,1.88-0.07,3.41c-0.05,1.53-0.07,2.67-0.07,3.44c0.02,4.77,0.47,8.33,1.35,10.7c0.88,2.36,2.55,3.55,5.03,3.55h8.48
		V213.6z"/>
	<path class="st5" d="M591.57,213.6h-6.2c-5.14,0-8.96-2.77-11.46-8.3c-1.24,0.56-2.64,1.51-4.2,2.85
		c-4.23,3.63-8.24,5.45-12.05,5.45h-9.14v-6.97h9.53c1.12,0,2.31-0.16,3.56-0.48c1.25-0.32,4.31-1.86,9.2-4.63
		c-1.82-1.36-4.32-2.15-7.5-2.35l2.98-6.78c3.67-0.93,6.57-1.39,8.72-1.39c6.68,0,10.02,1.94,10.02,5.82c0,2.44-2.35,4.69-7.04,6.75
		c1.1,1.22,2.54,2.03,4.33,2.45c1.79,0.41,4.88,0.62,9.27,0.62V213.6z M569.15,195.88c2.29,0.97,4.32,2.25,6.1,3.84
		c0.84-0.23,1.76-0.65,2.75-1.28c0.99-0.63,1.49-1.16,1.49-1.59c0-1.32-1.51-1.98-4.52-1.98
		C573.19,194.86,571.26,195.2,569.15,195.88z"/>
	<path class="st5" d="M634.63,213.6h-2.84c-4.34,0-7.33-0.4-8.97-1.19c-1.64-0.79-3.11-2.37-4.41-4.72
		c-2.62,3.94-5.22,5.91-7.81,5.91h-19.02v-6.97h18.64c2.8,0,4.2-1.07,4.2-3.22c0-2.02-0.77-4.65-2.31-7.9l5.36-8.33
		c1.96,5.47,3.16,10.14,3.61,14c0.14,1.28,0.36,2.18,0.67,2.71c0.3,0.53,0.72,0.98,1.26,1.35c0.54,0.37,1.18,0.67,1.93,0.9
		c0.75,0.23,1.41,0.37,1.98,0.42c0.57,0.05,3.15,0.08,7.72,0.08V213.6z M625.03,179.69l-5.43,4.86l-4.94-4.21l-5.36,4.58l-5.4-4.77
		l5.46-4.83l4.87,4.37l5.4-4.77L625.03,179.69z"/>
	<path class="st5" d="M676.74,179.47l-2.77,3.87c1.56,10.47,2.35,18.19,2.35,23.16c0,3.92-3.49,6.29-10.48,7.09h-31.21v-6.97
		l33.42-0.03c1.8,0.04,2.7-0.55,2.7-1.76c0-4.6-0.4-9.41-1.19-14.43c-0.79-5.02-1.86-8.61-3.19-10.78c1.4-2.15,3.2-4.45,5.4-6.91
		C673.38,175.72,675.04,177.97,676.74,179.47z"/>
	<path class="st5" d="M694.5,180.46l7.04-7.06c-0.16,3.06-0.25,6.7-0.25,10.93c0,1.84,0.12,4.78,0.35,8.82
		c0.21,4.05,0.32,6.99,0.32,8.82c0.02,3.08-0.58,5.99-1.8,8.73c-1.23,2.75-2.46,4.12-3.7,4.12c-0.12,0-0.22-0.18-0.3-0.53
		c-0.08-0.35-0.12-1.89-0.12-4.61c0-2.89-0.26-7.71-0.77-14.46C694.76,188.57,694.5,183.64,694.5,180.46z"/>
</g>
</svg>
